# xmcd
#
# Track frame offsets:
# 150
# 16725
# 29324
# 44592
# 63007
# 74442
# 91295
# 109091
# 126202
# 139395
# 155214
# 176090
# 189855
#
# Disc length: 2849 seconds
#
#
# Revision: 0
# Processed by: cddbd v1.5.2PL0 Copyright (c) Steve Scherf et al.
# Submitted via: FreeRIP 2.945 
#
DISCID=b30b1f0d
DTITLE=David Wills and the DYNAMICS - Love The One You're With
DYEAR=1996
DGENRE=Pop
TTITLE0=I was made to love her
TTITLE1=Sweet Inspiration
TTITLE2=You never can tell
TTITLE3=Come See About Me
TTITLE4=I Feel Good
TTITLE5=29 Ways
TTITLE6=Love the one You're with
TTITLE7=Come Together
TTITLE8=B-A-B-Y Baby
TTITLE9=Should Be You and Me
TTITLE10=Baby It's You
TTITLE11=Tell Mama
TTITLE12=Domino
EXTD=with the Dynagroove Horns\ndynamics@axion.net
EXTT0=
EXTT1=
EXTT2=
EXTT3=
EXTT4=
EXTT5=
EXTT6=
EXTT7=
EXTT8=
EXTT9=
EXTT10=
EXTT11=
EXTT12=
PLAYORDER=
